<?xml version="1.0" encoding="UTF-8" standalone="no"?>
<!DOCTYPE svg PUBLIC "-//W3C//DTD SVG 1.1//EN" "http://www.w3.org/Graphics/SVG/1.1/DTD/svg11.dtd">
<svg width="100%" height="100%" viewBox="0 0 1024 1024" version="1.1" xmlns="http://www.w3.org/2000/svg" xmlns:xlink="http://www.w3.org/1999/xlink" xml:space="preserve" xmlns:serif="http://www.serif.com/" style="fill-rule:evenodd;clip-rule:evenodd;stroke-linejoin:round;stroke-miterlimit:2;">
    <g id="Layer1">
        <path d="M512,125.868C699.395,125.868 851.537,192.015 851.537,273.49C851.537,354.964 699.395,421.112 512,421.112C324.605,421.112 172.463,354.964 172.463,273.49C172.463,192.015 324.605,125.868 512,125.868ZM507.911,165.236C404.166,165.236 314.246,184.78 269.533,212.136C244.097,227.699 231.827,246.916 231.827,265.643C231.827,284.371 244.097,303.588 269.533,319.15C314.246,346.507 404.166,366.051 507.911,366.051C611.656,366.051 701.576,346.507 746.289,319.15C771.725,303.588 783.995,284.371 783.995,265.643C783.995,246.916 771.725,227.699 746.289,212.136C701.576,184.78 611.656,165.236 507.911,165.236ZM507.911,202.736C590.049,202.736 662.969,215.098 708.12,234.638C721.341,240.36 731.975,246.555 739.186,253.422C743.375,257.412 746.495,261.209 746.495,265.643C746.495,270.077 743.375,273.874 739.186,277.864C731.975,284.731 721.341,290.927 708.12,296.648C662.969,316.189 590.049,328.551 507.911,328.551C425.773,328.551 352.853,316.189 307.702,296.648C294.481,290.927 283.847,284.731 276.637,277.864C272.447,273.874 269.327,270.077 269.327,265.643C269.327,261.209 272.447,257.412 276.637,253.422C283.847,246.555 294.481,240.36 307.702,234.638C352.853,215.098 425.773,202.736 507.911,202.736Z"/>
        <path d="M265.144,398.321C330.352,424.429 416.905,440.862 512,440.862C633.698,440.862 741.406,413.949 808.304,374.281C825.12,364.31 839.543,353.381 851.537,341.767L851.537,726.51C851.537,807.985 699.395,874.132 512,874.132C414.779,874.132 327.047,856.329 265.144,827.825L265.144,398.321ZM235.144,811.945C195.675,787.82 172.463,758.334 172.463,726.51L172.463,341.767C184.457,353.381 198.88,364.31 215.696,374.281C221.844,377.927 228.337,381.465 235.144,384.879L235.144,811.945Z" style="fill:rgb(0,95,255);"/>
        <clipPath id="_clip1">
            <path d="M265.144,398.321C330.352,424.429 416.905,440.862 512,440.862C633.698,440.862 741.406,413.949 808.304,374.281C825.12,364.31 839.543,353.381 851.537,341.767L851.537,726.51C851.537,807.985 699.395,874.132 512,874.132C414.779,874.132 327.047,856.329 265.144,827.825L265.144,398.321ZM235.144,811.945C195.675,787.82 172.463,758.334 172.463,726.51L172.463,341.767C184.457,353.381 198.88,364.31 215.696,374.281C221.844,377.927 228.337,381.465 235.144,384.879L235.144,811.945Z"/>
        </clipPath>
        <g clip-path="url(#_clip1)">
            <g transform="matrix(0.844459,0,0,1,11.7083,-24)">
                <rect x="75.275" y="273.49" width="220.207" height="658.836"/>
            </g>
        </g>
        <g transform="matrix(2.98271,0,0,1.46189,27.1285,-297.345)">
            <ellipse cx="161.19" cy="385.109" rx="86.275" ry="55.857" style="fill:rgb(0,95,255);"/>
        </g>
    </g>
</svg>
